<?xml version="1.0" standalone="no"?>
<!DOCTYPE svg PUBLIC "-//W3C//DTD SVG 20010904//EN"
 "http://www.w3.org/TR/2001/REC-SVG-20010904/DTD/svg10.dtd">
<svg version="1.0" xmlns="http://www.w3.org/2000/svg"
 width="960.000000pt" height="960.000000pt" viewBox="0 0 960.000000 960.000000"
 preserveAspectRatio="xMidYMid meet">
<metadata>
Created by potrace 1.14, written by Peter Selinger 2001-2017
</metadata>
<g transform="translate(0.000000,960.000000) scale(0.100000,-0.100000)"
fill="#000000" stroke="none">
<path d="M6745 9331 c-100 -27 -215 -72 -212 -82 3 -12 -75 -79 -93 -79 -22 0
-131 -131 -220 -263 -41 -62 -87 -128 -103 -148 -37 -49 -217 -396 -279 -539
-82 -187 -197 -408 -225 -430 -14 -11 -48 -27 -76 -35 -27 -8 -69 -31 -94 -51
l-44 -36 -152 2 c-229 4 -418 1 -460 -6 -41 -6 -76 -42 -54 -56 6 -4 12 -11
12 -15 0 -14 39 -53 52 -53 7 0 13 -4 13 -10 0 -13 -6 -13 -40 5 -17 9 -30 11
-30 5 0 -5 -9 -10 -20 -10 -23 0 -24 1 -8 35 9 19 9 28 0 37 -9 9 -12 9 -12
-1 0 -19 -57 -38 -161 -55 -52 -9 -105 -19 -119 -23 -23 -6 -24 -5 -11 11 14
16 12 17 -25 11 -21 -4 -78 -17 -127 -30 -87 -24 -88 -24 -140 -5 -28 10 -46
19 -39 19 67 4 -154 281 -333 416 -116 87 -225 106 -323 56 -94 -48 -206 -256
-248 -461 -30 -151 -2 -361 74 -552 56 -139 48 -204 -30 -246 -43 -23 -118
-92 -118 -108 0 -7 -8 -21 -18 -31 -10 -10 -35 -44 -56 -75 -20 -31 -55 -76
-76 -100 -22 -24 -40 -45 -40 -48 0 -3 12 -13 28 -22 35 -21 67 -56 59 -64 -4
-4 -42 -12 -86 -19 -153 -25 -175 -74 -95 -206 62 -102 71 -148 74 -377 0 -13
4 -20 10 -17 16 10 12 -3 -16 -44 -82 -125 -164 -408 -185 -636 -14 -158 -15
-203 -4 -234 6 -17 5 -22 -3 -17 -9 5 -12 -15 -12 -74 0 -79 1 -80 21 -70 11
7 23 9 26 7 2 -3 5 -36 6 -73 l2 -68 -45 -17 c-44 -16 -45 -18 -50 -65 -4 -43
-6 -47 -17 -29 -8 13 -15 17 -21 10 -21 -21 -98 -181 -94 -196 2 -10 -5 -19
-17 -22 -29 -7 -38 -37 -17 -52 15 -11 12 -13 -18 -19 -25 -5 -45 -19 -69 -49
-65 -80 -71 -94 -57 -127 11 -27 10 -34 -13 -68 -13 -20 -32 -60 -41 -88 -18
-55 -62 -114 -87 -118 -10 -1 -24 -8 -33 -15 -33 -28 -124 -363 -147 -541 -7
-52 -13 -201 -13 -330 0 -222 1 -240 26 -335 15 -55 39 -152 53 -215 29 -123
76 -273 101 -323 9 -17 38 -60 64 -96 26 -36 64 -97 86 -136 36 -66 163 -205
253 -278 32 -25 81 -37 81 -19 0 5 6 16 13 26 13 17 16 14 45 -37 17 -31 60
-91 94 -135 35 -43 78 -100 96 -126 25 -36 37 -46 51 -41 14 4 24 -2 37 -23
19 -32 102 -87 149 -98 66 -16 140 -61 213 -129 76 -70 198 -151 297 -195 28
-12 104 -40 170 -61 114 -37 127 -39 250 -39 180 0 319 -33 415 -97 27 -18 49
-23 95 -23 34 0 86 -4 116 -9 30 -5 236 -12 459 -15 223 -3 416 -8 430 -12 14
-4 172 -7 351 -6 316 2 327 3 410 27 46 14 121 34 166 45 115 27 340 114 549
213 265 125 308 142 439 177 66 17 123 34 127 36 3 2 48 15 100 28 51 13 122
35 157 50 134 54 401 219 452 279 32 37 101 158 131 230 16 37 46 136 67 220
70 273 98 534 100 913 l2 272 -60 114 c-72 137 -82 177 -85 328 -2 132 -15
187 -51 218 -14 12 -25 32 -25 45 0 35 -51 99 -108 138 -31 21 -88 83 -152
164 -116 146 -288 327 -369 388 -74 55 -171 151 -219 218 -22 30 -67 84 -101
118 -34 34 -61 66 -61 69 0 4 -36 45 -80 91 -44 47 -80 91 -80 98 0 8 -8 17
-17 20 -10 4 -24 13 -31 20 -7 7 -23 13 -35 13 -21 0 -34 15 -79 90 -8 14 -27
57 -43 97 -15 40 -36 81 -45 91 -9 10 -20 37 -24 61 -3 24 -18 58 -32 77 -19
24 -27 48 -28 83 -1 27 -10 61 -21 77 -10 16 -22 45 -26 64 -32 157 -40 214
-35 245 6 30 11 35 34 35 15 0 42 -4 59 -9 31 -9 54 1 34 14 -19 11 -123 7
-131 -5 -5 -8 -9 -4 -13 12 -9 32 -9 36 6 40 16 4 127 122 127 135 0 18 -54 1
-82 -25 -35 -32 -47 -22 -19 16 11 17 27 63 35 104 8 40 27 97 41 127 31 64
45 129 26 116 -19 -11 -5 108 18 161 19 42 26 47 91 59 41 8 126 59 134 81 10
27 6 62 -9 77 -18 19 -9 27 27 27 46 0 64 15 86 72 31 77 43 155 49 319 4 107
3 148 -6 153 -7 5 -31 -8 -56 -29 -72 -58 -107 -33 -66 48 29 60 71 171 71
190 0 9 -5 17 -11 17 -22 0 7 224 35 279 28 52 86 191 86 203 0 7 10 31 22 53
13 25 22 60 23 95 1 30 7 66 14 79 9 16 13 62 12 133 -1 126 -3 140 -42 303
-15 66 -37 167 -49 225 -33 171 -73 286 -126 357 -13 17 -24 45 -24 62 0 31 0
31 -57 31 -36 0 -85 10 -128 25 -97 35 -209 41 -300 16z"/>
<path d="M6469 9240 l-24 -20 28 11 c15 7 27 16 27 21 0 12 -5 10 -31 -12z"/>
<path d="M6340 9155 c-84 -85 -94 -96 -65 -75 55 41 159 150 143 150 -2 0 -37
-34 -78 -75z"/>
<path d="M2902 6323 c-19 -7 -3 -23 23 -23 22 0 47 19 28 21 -4 0 -15 2 -23 3
-8 2 -21 1 -28 -1z"/>
<path d="M6920 5353 c0 -5 14 -24 30 -43 l31 -35 -15 31 c-15 32 -46 63 -46
47z"/>
<path d="M8611 3043 c0 -5 7 -24 14 -43 l13 -35 1 43 c1 31 -3 42 -14 42 -8 0
-15 -3 -14 -7z"/>
<path d="M8323 3 c15 -2 39 -2 55 0 15 2 2 4 -28 4 -30 0 -43 -2 -27 -4z"/>
</g>
</svg>
